<svg width="16" height="16" viewBox="0 0 16 16" fill="none" xmlns="http://www.w3.org/2000/svg">
<path fill-rule="evenodd" clip-rule="evenodd" d="M11.0813 7.48277C11.2373 7.32757 11.2373 7.07317 11.0813 6.91797C10.9261 6.76197 10.6717 6.76197 10.5157 6.91797L7.19893 10.234L6.28213 9.31797C6.12693 9.16197 5.87253 9.16197 5.71733 9.31797C5.56133 9.47317 5.56133 9.72757 5.71733 9.88277L6.91733 11.0828C6.99493 11.1604 7.09733 11.1996 7.19893 11.1996C7.30133 11.1996 7.40373 11.162 7.48133 11.0828L11.0813 7.48277ZM8.39961 1.59957C8.29561 1.59957 8.19241 1.64277 8.11801 1.71797C8.04201 1.79157 7.99961 1.89557 7.99961 1.99957C7.99961 2.10437 8.04361 2.20677 8.11801 2.28197C8.19161 2.35797 8.29481 2.39957 8.39961 2.39957C8.50441 2.39957 8.60761 2.35717 8.68201 2.28197C8.75801 2.20757 8.79961 2.10437 8.79961 1.99957C8.79961 1.89557 8.75721 1.79237 8.68201 1.71797C8.60841 1.64197 8.50441 1.59957 8.39961 1.59957ZM6.1588 2.56757C6.4692 2.40517 6.7988 2.39957 6.7996 2.39957C7.0212 2.39957 7.1996 2.22117 7.1996 1.99957C7.1996 1.33797 7.738 0.799573 8.3996 0.799573C9.062 0.799573 9.5996 1.33797 9.5996 1.99957C9.5996 2.22117 9.7764 2.39957 9.998 2.39957C10.0012 2.39957 10.3308 2.40517 10.6412 2.56757C10.906 2.70597 11.0748 2.91477 11.1524 3.19957H5.6476C5.7252 2.91397 5.894 2.70597 6.1588 2.56757ZM5.19961 3.99957H11.5988C11.8204 3.99957 11.9988 3.82117 11.9988 3.59957C11.9988 3.59317 11.9988 3.58597 11.998 3.57797C11.9924 2.78517 11.6308 2.16837 10.9772 1.84197C10.758 1.73237 10.5404 1.67157 10.366 1.63877C10.1964 0.707573 9.37801 -0.000427246 8.39881 -0.000427246C7.42041 -0.000427246 6.60201 0.707573 6.43161 1.63877C6.25881 1.67157 6.04041 1.73237 5.82121 1.84197C5.16281 2.17077 4.79961 2.79637 4.79961 3.59957C4.79961 3.82117 4.97881 3.99957 5.19961 3.99957ZM13.9996 2.39957H13.1996C12.9788 2.39957 12.7996 2.57877 12.7996 2.79957C12.7996 3.02117 12.9788 3.19957 13.1996 3.19957H13.9996C14.2212 3.19957 14.3996 3.37877 14.3996 3.59957V14.7996C14.3996 15.0212 14.2212 15.1996 13.9996 15.1996H2.79961C2.57881 15.1996 2.39961 15.0212 2.39961 14.7996V3.59957C2.39961 3.37877 2.57881 3.19957 2.79961 3.19957H3.59961C3.82121 3.19957 3.99961 3.02117 3.99961 2.79957C3.99961 2.57877 3.82121 2.39957 3.59961 2.39957H2.79961C2.13801 2.39957 1.59961 2.93797 1.59961 3.59957V14.7996C1.59961 15.462 2.13801 15.9996 2.79961 15.9996H13.9996C14.662 15.9996 15.1996 15.462 15.1996 14.7996V3.59957C15.1996 2.93797 14.662 2.39957 13.9996 2.39957Z" fill="#02BC9C"/>
</svg>
